<svg xmlns="http://www.w3.org/2000/svg" viewBox="0 0 800 480" width="800" height="480">
  <defs>
    <linearGradient id="bg" x1="0" y1="0" x2="0" y2="1">
      <stop offset="0%" stop-color="#1a1b2e"/>
      <stop offset="100%" stop-color="#0f1017"/>
    </linearGradient>
  </defs>

  <!-- Background -->
  <rect width="800" height="480" rx="12" fill="url(#bg)"/>

  <!-- Title bar -->
  <rect width="800" height="40" rx="12" fill="#1e1f33"/>
  <rect y="30" width="800" height="10" fill="#1e1f33"/>
  <!-- Window dots -->
  <circle cx="24" cy="20" r="6" fill="#ff5f57"/>
  <circle cx="44" cy="20" r="6" fill="#febc2e"/>
  <circle cx="64" cy="20" r="6" fill="#28c840"/>
  <!-- Filename -->
  <text x="400" y="25" text-anchor="middle" font-family="SF Mono, Menlo, monospace" font-size="13" fill="#6b7094">app/api/users/route.ts</text>

  <!-- Code content -->
  <g font-family="SF Mono, Menlo, Consolas, monospace" font-size="14">
    <!-- Line 1: import -->
    <text x="32" y="72" fill="#565a7a">1</text>
    <text x="60" y="72" fill="#c678dd">import</text>
    <text x="114" y="72" fill="#abb2bf"> { </text>
    <text x="138" y="72" fill="#e5c07b">compose</text>
    <text x="198" y="72" fill="#abb2bf">, </text>
    <text x="214" y="72" fill="#e5c07b">withErrorHandler</text>
    <text x="352" y="72" fill="#abb2bf">, </text>
    <text x="368" y="72" fill="#e5c07b">withAuth</text>
    <text x="440" y="72" fill="#abb2bf">,</text>

    <!-- Line 2: import cont -->
    <text x="32" y="96" fill="#565a7a">2</text>
    <text x="60" y="96" fill="#abb2bf">  </text>
    <text x="78" y="96" fill="#e5c07b">withRateLimit</text>
    <text x="192" y="96" fill="#abb2bf">, </text>
    <text x="208" y="96" fill="#e5c07b">withValidation</text>
    <text x="336" y="96" fill="#abb2bf"> } </text>
    <text x="360" y="96" fill="#c678dd">from</text>
    <text x="402" y="96" fill="#98c379"> 'next-api-composer'</text>
    <text x="570" y="96" fill="#abb2bf">;</text>

    <!-- Line 3: blank -->
    <text x="32" y="120" fill="#565a7a">3</text>

    <!-- Line 4: schema -->
    <text x="32" y="144" fill="#565a7a">4</text>
    <text x="60" y="144" fill="#c678dd">const</text>
    <text x="108" y="144" fill="#e5c07b"> schema</text>
    <text x="168" y="144" fill="#56b6c2"> =</text>
    <text x="186" y="144" fill="#abb2bf"> z.</text>
    <text x="210" y="144" fill="#61afef">object</text>
    <text x="258" y="144" fill="#abb2bf">({ </text>
    <text x="282" y="144" fill="#e06c75">name</text>
    <text x="318" y="144" fill="#abb2bf">: z.</text>
    <text x="354" y="144" fill="#61afef">string</text>
    <text x="408" y="144" fill="#abb2bf">(), </text>
    <text x="432" y="144" fill="#e06c75">email</text>
    <text x="480" y="144" fill="#abb2bf">: z.</text>
    <text x="516" y="144" fill="#61afef">string</text>
    <text x="568" y="144" fill="#abb2bf">().</text>
    <text x="594" y="144" fill="#61afef">email</text>
    <text x="636" y="144" fill="#abb2bf">() });</text>

    <!-- Line 5: blank -->
    <text x="32" y="168" fill="#565a7a">5</text>

    <!-- Line 6: compose -->
    <text x="32" y="192" fill="#565a7a">6</text>
    <text x="60" y="192" fill="#c678dd">const</text>
    <text x="108" y="192" fill="#e5c07b"> secured</text>
    <text x="180" y="192" fill="#56b6c2"> =</text>
    <text x="198" y="192" fill="#61afef"> compose</text>
    <text x="270" y="192" fill="#abb2bf">(</text>

    <!-- Line 7: withErrorHandler -->
    <text x="32" y="216" fill="#565a7a">7</text>
    <text x="78" y="216" fill="#61afef">withErrorHandler</text>
    <text x="216" y="216" fill="#abb2bf">({ </text>
    <text x="246" y="216" fill="#e06c75">label</text>
    <text x="288" y="216" fill="#abb2bf">: </text>
    <text x="300" y="216" fill="#98c379">'users'</text>
    <text x="372" y="216" fill="#abb2bf"> }),</text>

    <!-- Line 8: withRateLimit -->
    <text x="32" y="240" fill="#565a7a">8</text>
    <text x="78" y="240" fill="#61afef">withRateLimit</text>
    <text x="192" y="240" fill="#abb2bf">({ </text>
    <text x="222" y="240" fill="#e06c75">max</text>
    <text x="252" y="240" fill="#abb2bf">: </text>
    <text x="264" y="240" fill="#d19a66">30</text>
    <text x="282" y="240" fill="#abb2bf"> }),</text>

    <!-- Line 9: withAuth -->
    <text x="32" y="264" fill="#565a7a">9</text>
    <text x="72" y="264" fill="#61afef">withAuth</text>
    <text x="144" y="264" fill="#abb2bf">({ </text>
    <text x="174" y="264" fill="#e06c75">adapter</text>
    <text x="234" y="264" fill="#abb2bf">: </text>
    <text x="246" y="264" fill="#61afef">nextAuthAdapter</text>
    <text x="384" y="264" fill="#abb2bf">(authOptions) }),</text>

    <!-- Line 10: withValidation -->
    <text x="24" y="288" fill="#565a7a">10</text>
    <text x="72" y="288" fill="#61afef">withValidation</text>
    <text x="204" y="288" fill="#abb2bf">({ </text>
    <text x="234" y="288" fill="#e06c75">body</text>
    <text x="270" y="288" fill="#abb2bf">: schema }),</text>

    <!-- Line 11: close compose -->
    <text x="24" y="312" fill="#565a7a">11</text>
    <text x="60" y="312" fill="#abb2bf">);</text>

    <!-- Line 12: blank -->
    <text x="24" y="336" fill="#565a7a">12</text>

    <!-- Line 13: export -->
    <text x="24" y="360" fill="#565a7a">13</text>
    <text x="60" y="360" fill="#c678dd">export const</text>
    <text x="156" y="360" fill="#e5c07b"> POST</text>
    <text x="204" y="360" fill="#56b6c2"> =</text>
    <text x="222" y="360" fill="#abb2bf"> secured(</text>
    <text x="300" y="360" fill="#c678dd">async</text>
    <text x="348" y="360" fill="#abb2bf"> (</text>
    <text x="360" y="360" fill="#e06c75">req</text>
    <text x="390" y="360" fill="#abb2bf">, </text>
    <text x="404" y="360" fill="#e06c75">ctx</text>
    <text x="432" y="360" fill="#abb2bf">) </text>
    <text x="444" y="360" fill="#c678dd">=></text>
    <text x="468" y="360" fill="#abb2bf"> {</text>

    <!-- Line 14: body -->
    <text x="24" y="384" fill="#565a7a">14</text>
    <text x="78" y="384" fill="#5c6370">// ctx.userId, ctx.validated.body are fully typed</text>

    <!-- Line 15: return -->
    <text x="24" y="408" fill="#565a7a">15</text>
    <text x="78" y="408" fill="#c678dd">return</text>
    <text x="126" y="408" fill="#abb2bf"> NextResponse.</text>
    <text x="240" y="408" fill="#61afef">json</text>
    <text x="276" y="408" fill="#abb2bf">({ </text>
    <text x="306" y="408" fill="#e06c75">userId</text>
    <text x="360" y="408" fill="#abb2bf">: ctx.</text>
    <text x="396" y="408" fill="#e06c75">userId</text>
    <text x="444" y="408" fill="#abb2bf"> });</text>

    <!-- Line 16: close -->
    <text x="24" y="432" fill="#565a7a">16</text>
    <text x="60" y="432" fill="#abb2bf">});</text>
  </g>

  <!-- Badge -->
  <rect x="586" y="448" width="200" height="24" rx="12" fill="#3b82f6" opacity="0.15"/>
  <text x="686" y="464" text-anchor="middle" font-family="SF Mono, Menlo, monospace" font-size="11" fill="#60a5fa" font-weight="600">next-api-composer</text>
</svg>
